<?xml version="1.0" encoding="utf-8"?>
<!-- Generator: Adobe Illustrator 17.0.0, SVG Export Plug-In . SVG Version: 6.00 Build 0)  -->
<!DOCTYPE svg PUBLIC "-//W3C//DTD SVG 1.1//EN" "http://www.w3.org/Graphics/SVG/1.1/DTD/svg11.dtd">
<svg version="1.1" id="图形" xmlns="http://www.w3.org/2000/svg" xmlns:xlink="http://www.w3.org/1999/xlink" x="0px" y="0px"
	 width="1024px" height="1024px" viewBox="0 0 1024 1024" enable-background="new 0 0 1024 1024" xml:space="preserve">
<path fill="#408aff" d="M640,256H128C57.344,256,0,313.344,0,384v512c0,70.656,57.344,128,128,128h512c70.656,0,128-57.344,128-128
	V384C768,313.344,710.656,256,640,256z M640,768c0,70.656-57.344,128-128,128H256c-70.656,0-128-57.344-128-128V448
	c0-35.392,28.608-64,64-64h384c35.328,0,64,28.608,64,64V768z M832,64H320c-70.656,0-128,57.344-128,128h512
	c70.656,0,128,57.344,128,128v512c70.656,0,128-57.344,128-128V192C960,121.344,902.656,64,832,64z M476.288,583.296l0.32-0.576
	l-128-64l-0.32,0.576C339.712,515.008,330.304,512,320,512c-35.392,0-64,28.608-64,64v128c0,35.328,28.608,64,64,64
	c10.304,0,19.712-3.008,28.288-7.36l0.32,0.64l128-64.064l-0.32-0.576C497.28,686.144,512,665.024,512,640
	C512,614.912,497.28,593.792,476.288,583.296z"/>
</svg>
